<svg xmlns="http://www.w3.org/2000/svg" viewBox="0 0 187.61 180.49"><defs><style>.cls-1{fill:#2ea9ff;}.cls-2{fill:#e7ca00;}.cls-3{opacity:0.19;}.cls-4{fill:#00d098;}</style></defs><g id="Calque_2" data-name="Calque 2"><g id="Calque_1-2" data-name="Calque 1"><g id="Calque_2-2" data-name="Calque 2"><g id="Calque_1-2-2" data-name="Calque 1-2"><path d="M127.52,0H86.86S83.84,88.31,0,180.49H51.42S114.69,112.66,127.52,0Z"/><path d="M163,111.29l20.63,37.6s-57.32,5.87-105.93,31.6H0S53.84,131.46,163,111.29Z"/><path d="M141.92,115.61c-13.68,3.17-26.36,6.77-38,10.61a390.37,390.37,0,0,0,16.06,36.47,356.85,356.85,0,0,1,39.31-10.13A279.47,279.47,0,0,1,141.92,115.61Z"/><path d="M119.84,3.52H86.65a203.51,203.51,0,0,1-5.4,30.69A360,360,0,0,0,94.74,99.48c.84,2.77,1.69,5.47,2.56,8.13a352.69,352.69,0,0,0,24.62-74A262.24,262.24,0,0,1,119.84,3.52Z"/><path d="M139,180.49s-21.33-33.22-36.7-84.07C93.88,68.69,87.27,35.7,86.86,0h40.66s-1.06,102.67,60.09,180.49Z"/></g></g><g id="Calque_2-3" data-name="Calque 2"><g id="Calque_1-2-3" data-name="Calque 1-2"><path class="cls-1" d="M127.52,0H86.86S83.84,88.31,0,180.49H51.42S114.69,112.66,127.52,0Z"/><path class="cls-2" d="M163,111.29l20.63,37.6s-57.32,5.87-105.93,31.6H0S53.84,131.46,163,111.29Z"/><path class="cls-3" d="M141.92,115.61c-13.68,3.17-26.36,6.77-38,10.61a390.37,390.37,0,0,0,16.06,36.47,356.85,356.85,0,0,1,39.31-10.13A279.47,279.47,0,0,1,141.92,115.61Z"/><path class="cls-3" d="M119.84,3.52H86.65a203.51,203.51,0,0,1-5.4,30.69A360,360,0,0,0,94.74,99.48c.84,2.77,1.69,5.47,2.56,8.13a352.69,352.69,0,0,0,24.62-74A262.24,262.24,0,0,1,119.84,3.52Z"/><path class="cls-4" d="M139,180.49s-21.33-33.22-36.7-84.07C93.88,68.69,87.27,35.7,86.86,0h40.66s-1.06,102.67,60.09,180.49Z"/></g></g></g></g></svg>